<svg xmlns="http://www.w3.org/2000/svg" width="1200" height="630" viewBox="0 0 1200 630" role="img" aria-label="Aici social preview">
  <rect width="1200" height="630" fill="#fbf8ef"/>
  <path d="M0 0h1200v630H0z" fill="#fbf8ef"/>
  <path d="M80 72h1040v486H80z" fill="#fffdf7" stroke="#ddd6c5" stroke-width="2"/>
  <rect x="118" y="110" width="62" height="62" rx="14" fill="#202632"/>
  <text x="136" y="153" font-family="JetBrains Mono, SFMono-Regular, Consolas, monospace" font-size="34" font-weight="800" fill="#fbf8ef">a</text>
  <text x="202" y="151" font-family="JetBrains Mono, SFMono-Regular, Consolas, monospace" font-size="30" font-weight="800" fill="#202632">aici</text>
  <text x="300" y="151" font-family="JetBrains Mono, SFMono-Regular, Consolas, monospace" font-size="22" font-weight="600" fill="#7b8493">@0.1</text>
  <text x="118" y="270" font-family="Inter, ui-sans-serif, system-ui, sans-serif" font-size="74" font-weight="700" letter-spacing="-2" fill="#202632">Fail the PR when</text>
  <text x="118" y="350" font-family="Inter, ui-sans-serif, system-ui, sans-serif" font-size="74" font-weight="700" letter-spacing="-2" fill="#202632">the LLM regresses.</text>
  <text x="122" y="427" font-family="Inter, ui-sans-serif, system-ui, sans-serif" font-size="28" font-weight="500" fill="#565f6d">CLI + GitHub Action for prompts, JSON contracts,</text>
  <text x="122" y="466" font-family="Inter, ui-sans-serif, system-ui, sans-serif" font-size="28" font-weight="500" fill="#565f6d">tool calls, latency, and cost before deploy.</text>
  <g transform="translate(776 148)">
    <rect width="286" height="304" rx="18" fill="#202632"/>
    <rect x="24" y="28" width="238" height="32" rx="7" fill="#303744"/>
    <rect x="24" y="84" width="142" height="18" rx="5" fill="#8fe0b4"/>
    <rect x="24" y="122" width="210" height="18" rx="5" fill="#687180"/>
    <rect x="24" y="174" width="116" height="18" rx="5" fill="#ff9b91"/>
    <rect x="24" y="212" width="222" height="18" rx="5" fill="#687180"/>
    <rect x="24" y="256" width="96" height="24" rx="8" fill="#ff9b91"/>
  </g>
</svg>
